HIERARCHY
ROOT SpineBase
{
  OFFSET 0.000000 0.000000 0.000000
  CHANNELS 6 Xposition Yposition Zposition Zrotation Xrotation Yrotation
  JOINT SpineMid
  {
    OFFSET 0.000000 29.022661 0.000000
    CHANNELS 3 Zrotation Xrotation Yrotation
    JOINT SpineShoulder
    {
      OFFSET 0.154125 21.613975 -0.581016
      CHANNELS 3 Zrotation Xrotation Yrotation
      JOINT Neck
      {
        OFFSET 0.086866 7.170470 -0.467106
        CHANNELS 3 Zrotation Xrotation Yrotation
        JOINT Head
        {
          OFFSET -3.626674 10.381646 0.215739
          CHANNELS 3 Zrotation Xrotation Yrotation
          End Site
          {
            OFFSET 0 0 0
          }
        }
      }
      JOINT ShoulderLeft
      {
        OFFSET -15.882067 -4.829301 5.553369
        CHANNELS 3 Zrotation Xrotation Yrotation
        JOINT ElbowLeft
        {
          OFFSET -1.570279 -25.107424 -0.227874
          CHANNELS 3 Zrotation Xrotation Yrotation
          JOINT WristLeft
          {
            OFFSET -0.986364 -19.219782 -5.733903
            CHANNELS 3 Zrotation Xrotation Yrotation
            JOINT HandLeft
            {
              OFFSET 1.016589 -6.444609 0.616677
              CHANNELS 3 Zrotation Xrotation Yrotation
              JOINT HandTipLeft
              {
                OFFSET 0.242169 -6.833931 -2.501349
                CHANNELS 3 Zrotation Xrotation Yrotation
                End Site
                {
                  OFFSET 0 0 0
                }
              }
              JOINT ThumbLeft
              {
                OFFSET -2.379868 -0.978146 -2.543323
                CHANNELS 3 Zrotation Xrotation Yrotation
                End Site
                {
                  OFFSET 0 0 0
                }
              }
            }
          }
        }
      }
      JOINT ShoulderRight
      {
        OFFSET 14.043342 -2.534522 -7.614342
        CHANNELS 3 Zrotation Xrotation Yrotation
        JOINT ElbowRight
        {
          OFFSET 6.927901 -23.454362 0.803564
          CHANNELS 3 Zrotation Xrotation Yrotation
          JOINT WristRight
          {
            OFFSET 1.657243 -20.369941 -1.818953
            CHANNELS 3 Zrotation Xrotation Yrotation
            JOINT HandRight
            {
              OFFSET 0.151216 -6.497812 -0.228044
              CHANNELS 3 Zrotation Xrotation Yrotation
              JOINT HandTipRight
              {
                OFFSET 0.859919 -6.308310 0.090050
                CHANNELS 3 Zrotation Xrotation Yrotation
                End Site
                {
                  OFFSET 0 0 0
                }
              }
              JOINT ThumbRight
              {
                OFFSET 3.702192 0.653553 -1.039014
                CHANNELS 3 Zrotation Xrotation Yrotation
                End Site
                {
                  OFFSET 0 0 0
                }
              }
            }
          }
        }
      }
    }
  }
  JOINT HipLeft
  {
    OFFSET -4.959588 0.356148 -0.837571
    CHANNELS 3 Zrotation Xrotation Yrotation
    JOINT KneeLeft
    {
      OFFSET 0.160650 -28.544687 4.239056
      CHANNELS 3 Zrotation Xrotation Yrotation
      JOINT AnkleLeft
      {
        OFFSET 4.837491 -32.063807 4.934104
        CHANNELS 3 Zrotation Xrotation Yrotation
        JOINT FootLeft
        {
          OFFSET 2.696383 -6.587037 -6.751481
          CHANNELS 3 Zrotation Xrotation Yrotation
          End Site
          {
            OFFSET 0 0 0
          }
        }
      }
    }
  }
  JOINT HipRight
  {
    OFFSET 5.617227 1.519093 -5.391945
    CHANNELS 3 Zrotation Xrotation Yrotation
    JOINT KneeRight
    {
      OFFSET 7.440788 -26.096498 2.263133
      CHANNELS 3 Zrotation Xrotation Yrotation
      JOINT AnkleRight
      {
        OFFSET 5.087580 -34.533397 4.402494
        CHANNELS 3 Zrotation Xrotation Yrotation
        JOINT FootRight
        {
          OFFSET -2.330245 -6.288809 -5.921738
          CHANNELS 3 Zrotation Xrotation Yrotation
          End Site
          {
            OFFSET 0 0 0
          }
        }
      }
    }
  }
}
MOTION
Frames: 9
Frame Time: 0.033333
-35.530780 68.380101 345.910415 1.566381 1.578466 32.245049 0.296165 -0.398975 -32.212157 0.158704 -0.127008 0.087040 6.400301 -13.466740 -3.411237 0.000000 0.000000 0.000000 -7.438198 13.456584 -0.465118 -11.769898 44.866569 7.599798 -28.426343 23.319513 1.200537 10.038115 -57.734659 -5.594662 0.000000 0.000000 0.000000 0.000000 0.000000 0.000000 -9.676154 13.666726 4.955483 -62.831706 13.809755 5.230838 1.385933 -11.108464 -13.586696 -3.154777 29.792912 25.860387 0.000000 0.000000 0.000000 0.000000 0.000000 0.000000 -0.954173 -1.820133 -31.997295 -3.842384 1.388070 -0.403109 1.265448 -6.414984 -1.290408 0.000000 0.000000 0.000000 -3.503524 -0.127085 -32.513192 0.748888 -0.215941 0.060972 -9.281186 29.088423 0.977738 0.000000 0.000000 0.000000
-35.495414 68.339601 345.892672 1.584475 1.590302 32.369699 0.227604 -0.395591 -32.338719 0.067141 -0.153424 0.079106 6.566302 -13.805311 -3.508845 0.000000 0.000000 0.000000 -6.815091 13.255861 -0.502628 -12.195167 45.165054 7.564545 -29.062449 25.606980 2.553471 11.454222 -57.051974 -4.300123 0.000000 0.000000 0.000000 0.000000 0.000000 0.000000 -9.877744 13.784598 5.029898 -64.049699 13.875366 5.448408 6.161543 -1.320640 -5.610484 3.038824 24.211714 21.337625 0.000000 0.000000 0.000000 0.000000 0.000000 0.000000 -0.899313 -1.803957 -32.111771 -3.935559 1.343290 -0.418003 1.604517 -6.761519 -1.746922 0.000000 0.000000 0.000000 -3.397259 -0.127514 -32.609934 0.530534 -0.467255 -0.008564 -9.205376 29.270494 1.049766 0.000000 0.000000 0.000000
-35.497726 68.303042 345.881496 1.546513 1.594813 32.413261 0.130807 -0.394834 -32.385552 -0.052548 -0.190842 0.066240 6.899094 -14.114242 -3.598446 0.000000 0.000000 0.000000 -7.028729 15.287475 -0.458225 -11.041698 42.502183 6.860830 -30.537930 26.781304 2.633488 13.770550 -58.512200 -2.975031 0.000000 0.000000 0.000000 0.000000 0.000000 0.000000 -10.150198 14.002239 5.160491 -64.313003 14.170078 5.730310 7.654166 2.917078 -2.437442 4.146838 23.154316 21.664717 0.000000 0.000000 0.000000 0.000000 0.000000 0.000000 -0.730340 -1.839625 -32.132653 -4.129597 1.267021 -0.451945 1.414471 -7.607701 -1.865062 0.000000 0.000000 0.000000 -3.328036 -0.165199 -32.647832 0.515656 -0.523362 -0.018224 -9.241597 29.320616 1.064686 0.000000 0.000000 0.000000
-35.500680 68.261282 345.860006 1.480082 1.575300 32.429567 0.001882 -0.394962 -32.406011 -0.188273 -0.237585 0.050350 7.539071 -14.266873 -3.633643 0.000000 0.000000 0.000000 -6.630542 15.411909 -0.434342 -9.980262 42.564473 6.266458 -32.113656 28.891128 3.616012 16.987536 -53.174929 1.089958 0.000000 0.000000 0.000000 0.000000 0.000000 0.000000 -9.912519 14.213943 5.242352 -64.295061 14.607319 6.046580 7.497353 3.295767 -2.214223 1.587002 21.514256 20.459194 0.000000 0.000000 0.000000 0.000000 0.000000 0.000000 -0.523712 -1.887948 -32.123771 -4.340305 1.182529 -0.491599 1.368458 -7.947195 -1.896015 0.000000 0.000000 0.000000 -3.167326 -0.238057 -32.652487 0.367897 -0.544380 -0.036204 -9.221370 29.331476 1.089266 0.000000 0.000000 0.000000
-35.482822 68.216668 345.837679 1.442981 1.564572 32.413117 -0.033931 -0.387027 -32.391240 -0.226363 -0.225378 0.044344 7.784395 -14.582240 -3.697988 0.000000 0.000000 0.000000 -6.000772 14.315530 -0.470958 -9.766781 45.146458 6.085338 -32.735017 28.522068 2.841525 18.956961 -52.236463 2.869829 0.000000 0.000000 0.000000 0.000000 0.000000 0.000000 -9.430301 14.178033 5.198162 -64.053999 14.648652 5.997522 6.535295 1.778774 -3.447257 2.586558 23.755578 22.224164 0.000000 0.000000 0.000000 0.000000 0.000000 0.000000 -0.387604 -1.923613 -32.089436 -4.544276 1.129886 -0.526905 1.494999 -8.044442 -1.947540 0.000000 0.000000 0.000000 -3.109055 -0.296500 -32.640186 0.279278 -0.475527 -0.031305 -9.185444 29.289441 1.094535 0.000000 0.000000 0.000000
-35.465295 68.174011 345.813943 1.398326 1.554714 32.279561 -0.043553 -0.387935 -32.258488 -0.239287 -0.215006 0.041067 7.879281 -14.818464 -3.755056 0.000000 0.000000 0.000000 -6.344141 15.039681 -0.427619 -7.790130 44.783204 5.225490 -33.001288 26.298270 1.057965 26.325639 -49.368405 8.907828 0.000000 0.000000 0.000000 0.000000 0.000000 0.000000 -8.890530 14.021833 5.096831 -63.480810 14.679485 5.981540 4.341206 -2.461565 -6.837283 -2.457996 26.087458 24.117124 0.000000 0.000000 0.000000 0.000000 0.000000 0.000000 -0.247521 -1.982582 -31.936942 -4.785072 1.055395 -0.573445 1.965918 -7.952306 -2.232750 0.000000 0.000000 0.000000 -3.080998 -0.378895 -32.522271 0.216248 -0.305602 -0.004322 -9.108938 29.195032 1.042579 0.000000 0.000000 0.000000
-35.455600 68.148429 345.792287 1.331736 1.520588 32.089525 -0.023853 -0.393348 -32.068249 -0.236118 -0.214432 0.039565 7.996217 -14.835925 -3.759368 0.000000 0.000000 0.000000 -7.278834 16.870934 -0.310129 -7.872570 41.795985 5.602220 -31.090080 23.515473 0.136775 23.528685 -49.472036 6.647033 0.000000 0.000000 0.000000 0.000000 0.000000 0.000000 -8.072596 13.818689 4.944471 -62.609835 14.808455 5.990976 -1.834536 -6.700115 -11.665734 2.367253 27.426099 24.345040 0.000000 0.000000 0.000000 0.000000 0.000000 0.000000 -0.093054 -2.057479 -31.727859 -4.993927 1.004033 -0.614793 2.712962 -7.571357 -2.700004 0.000000 0.000000 0.000000 -3.043371 -0.457935 -32.352787 0.190528 -0.124922 0.030389 -9.057452 29.097762 0.996724 0.000000 0.000000 0.000000
-35.441172 68.107998 345.792970 1.315982 1.514698 31.897791 0.033380 -0.391175 -31.875210 -0.195802 -0.204242 0.043495 7.720478 -14.924825 -3.799050 0.000000 0.000000 0.000000 -9.540050 21.082878 0.045435 -6.655887 34.554745 5.602940 -28.115758 22.187729 1.173937 15.816599 -50.495431 0.844176 0.000000 0.000000 0.000000 0.000000 0.000000 0.000000 -7.219840 13.446195 4.728023 -63.065478 14.591232 5.953124 -3.391611 -6.028584 -11.632087 4.211499 25.913442 22.791295 0.000000 0.000000 0.000000 0.000000 0.000000 0.000000 -0.018806 -2.117100 -31.522809 -5.161580 0.956738 -0.649640 3.418199 -7.141301 -3.122203 0.000000 0.000000 0.000000 -3.111802 -0.528047 -32.193046 0.239206 0.118023 0.084986 -9.030142 28.961753 0.934610 0.000000 0.000000 0.000000
-35.429400 68.062674 345.794200 1.284699 1.505857 31.635733 0.055330 -0.393667 -31.612855 -0.173475 -0.201837 0.044659 7.557982 -15.169546 -3.884396 0.000000 0.000000 0.000000 -11.357346 23.735453 0.450088 -5.238271 29.237365 5.500112 -26.697291 23.026308 2.692840 10.974770 -49.218316 -2.216676 0.000000 0.000000 0.000000 0.000000 0.000000 0.000000 -6.545298 13.167292 4.568701 -63.313972 14.843527 6.276936 -6.297547 -5.945554 -12.601547 12.187519 28.686256 24.113696 0.000000 0.000000 0.000000 0.000000 0.000000 0.000000 0.042261 -2.193207 -31.250656 -5.276127 0.933104 -0.675156 4.074030 -6.598624 -3.484631 0.000000 0.000000 0.000000 -3.084274 -0.582410 -31.938950 0.185179 0.242023 0.102208 -8.915364 28.900130 0.843888 0.000000 0.000000 0.000000
